<svg xmlns="http://www.w3.org/2000/svg" version="1.1" xmlns:xlink="http://www.w3.org/1999/xlink" xmlns:svgjs="http://svgjs.dev/svgjs" width="1440" height="560" preserveAspectRatio="none" viewBox="0 0 1440 560"><g mask="url(&quot;#SvgjsMask1000&quot;)" fill="none"><rect width="1440" height="560" x="0" y="0" fill="#0e2a47"></rect><path d="M0,425.959C78.864,410.714,155.373,390.291,221.855,345.213C287.153,300.938,328.749,235.066,375.384,171.432C434.198,91.179,549.117,21.477,530.773,-76.314C512.197,-175.342,377.968,-198.318,295.236,-255.824C234.14,-298.291,179.688,-347.885,108.577,-369.778C36.783,-391.881,-37.106,-387.903,-111.923,-381.174C-203.462,-372.941,-303.27,-381.821,-376.405,-326.157C-454.328,-266.849,-509.536,-171.852,-515.376,-74.1C-521.091,21.555,-446.009,98.345,-406.993,185.868C-367.537,274.377,-368.26,393.914,-284.796,443.151C-201.189,492.472,-95.307,444.382,0,425.959" fill="#0b2239"></path><path d="M1440 892.095C1506.748 891.528 1575.251 893.614 1633.805 861.567 1694.539 828.326 1743.196 774.567 1770.772 711.059 1798.0720000000001 648.187 1804.3229999999999 576.35 1786.373 510.199 1769.4560000000001 447.856 1708.0149999999999 411.998 1674.616 356.704 1631.846 285.897 1638.576 174.56900000000002 1563.139 140.62599999999998 1489.816 107.63400000000001 1407.217 167.762 1335.504 204.12 1273.891 235.35700000000003 1232.903 290.25 1180.121 334.81399999999996 1115.537 389.34299999999996 995.616 411.006 990.5409999999999 495.378 985.309 582.351 1109.557 616.551 1158.8519999999999 688.396 1196.575 743.376 1190.071 825.758 1244.066 864.879 1298.566 904.366 1372.701 892.6669999999999 1440 892.095" fill="#113255"></path></g><defs><mask id="SvgjsMask1000"><rect width="1440" height="560" fill="#ffffff"></rect></mask></defs></svg>